Private Practice - The Time Has Come - S05E13

Releaser:
r3mnants
 
http://s14.postimage.org/dyz6nqg4v/PP1.png 
http://s14.postimage.org/yx5cltfzj/PP2.png

Format                                   : MPEG-4
Format profile                           : Base Media
Codec ID                                 : isom
File size                                : 512 MiB
Duration                                 : 40mn 57s
Overall bit rate mode                    : Variable
Overall bit rate                         : 1 747 Kbps

Video
ID                                       : 1
Format                                   : AVC
Format/Info                              : Advanced Video Codec
Format profile                           : High@L4.0
Format settings, CABAC                   : Yes
Format settings, ReFrames                : 3 frames
Codec ID                                 : avc1
Codec ID/Info                            : Advanced Video Coding
Duration                                 : 40mn 57s
Bit rate mode                            : Variable
Bit rate                                 : 1 616 Kbps
Maximum bit rate                         : 25.0 Mbps
Width                                    : 1280 pixels
Height                                   : 720 pixels
Display aspect ratio                     : 16:9
Frame rate mode                          : Constant
Frame rate                               : 29.970 fps
Color space                              : YUV
Chroma subsampling                       : 4:2:0
Bit depth                                : 8 bits
Scan type                                : Progressive
Bits/(Pixel*Frame)                       : 0.058
Stream size                              : 473 MiB (92%)
Title                                    : PPS05E13
Writing library                          : x264 core 120 r2120 0c7dab9

Audio
ID                                       : 2
Format                                   : AAC
Format/Info                              : Advanced Audio Codec
Format profile                           : LC
Codec ID                                 : 40
Duration                                 : 40mn 57s
Bit rate mode                            : Variable
Bit rate                                 : 128 Kbps
Maximum bit rate                         : 136 Kbps
Channel(s)                               : 2 channels
Channel positions                        : Front: L R
Sampling rate                            : 48.0 KHz
Compression mode                         : Lossy
Stream size                              : 37.5 MiB (7%)